<svg viewBox="0 0 1440 504.6" xmlns="http://www.w3.org/2000/svg">
    <path id="a" class="st0" d="M846,130.5c29.6,0,53.8-24.2,53.8-53.8S875.6,23.6,846,23.6s-53.2,24.2-53.2,53.2S817.1,130.5,846,130.5 z M1045.8,433.3V0H922.7v16.1c31.6,1.4,45.1,18.2,45.1,49.1v377.1c0,21.8-17.7,39.8-39.5,39.4c-24.8-0.5-37.2-15.9-37.2-41V171.6 H768v16.1c31.6,1.4,45.1,18.2,45.1,49.1v202.5c0,24.2-15.5,42.4-42.4,42.4s-42.4-18.2-42.4-43.7V171.6H605.2v16.1 c31.6,1.4,45.1,18.2,45.1,49.1v171.6c0,47.8-29.6,71.3-65.3,71.3c-37.7,0-53.8-22.9-53.8-62.6V213.9c0-28.9-14.1-42.4-44.4-42.4 H298.8c-37,0-51.8,26.2-42.4,59.2l77.8,203.5c1.2,3.2,2.2,6.5,2.6,9.9c2.4,18.1-7.1,33.5-31.1,33.5h-41.4 C169.6,477.7,105,403,105,248.2s63.9-226,183.7-226c2.2,0,1.6,0,3.8,0.1C364.6,24,405.3,54.4,437,119.1h16.1V0H285.9 C112.3,0,0,100.9,0,252.3s106.3,246.2,262.4,246.2h115.4c30.6,0,44.7-21.6,41.9-47.8c-0.6-5.4-2-10.8-3.9-15.9l-77.2-202.8 c-6.7-22.9,2.7-39.7,26.9-39.7h56.7c22.9,0,31,13.5,31,32.3v185.7c0,56.5,36.3,94.2,108.3,94.2c43,0,73.7-15.4,90.2-41.3v35.3h439.3 v-16.1C1059.3,481,1045.8,464.2,1045.8,433.3L1045.8,433.3z M1394.9,433.3V0h-123.1v16.1c31.6,1.4,45.1,18.2,45.1,49.1v132 c-16.1-16.4-40.6-25.7-76.7-25.7c-92.8,0-156.1,57.2-156.1,168.9s53.2,164.2,146.7,164.2c40.2,0,69.5-13.9,86.1-39.5v33.5H1440 v-16.1C1408.4,481,1394.9,464.2,1394.9,433.3L1394.9,433.3z M1251.6,480.4c-52.5,0-81.4-33-81.4-146.7 c0-107.6,31.6-141.3,82.1-141.3c44.4,0,64.6,28.9,64.6,66.6v148C1316.9,454.1,1288.6,480.4,1251.6,480.4L1251.6,480.4z"></path>
</svg>